<svg xmlns="http://www.w3.org/2000/svg" height="512px" viewBox="0 -960 960 960" width="512px" fill="#4977b1"><path d="M478-240q21 0 35.5-14.5T528-290q0-21-14.5-35.5T478-340q-21 0-35.5 14.5T428-290q0 21 14.5 35.5T478-240Zm-36-154h74q0-33 7.5-52t42.5-52q26-26 41-49.5t15-56.5q0-56-41-86t-97-30q-57 0-92.5 30T342-618l66 26q5-18 22.5-39t53.5-21q32 0 48 17.5t16 38.5q0 20-12 37.5T506-512q-44 39-54 59t-10 59Zm38 314q-83 0-156-31.5T197-197q-54-54-85.5-127T80-480q0-83 31.5-156T197-763q54-54 127-85.5T480-880q83 0 156 31.5T763-763q54 54 85.5 127T880-480q0 83-31.5 156T763-197q-54 54-127 85.5T480-80Zm0-60q142 0 241-99.5T820-480q0-142-99-241t-241-99q-141 0-240.5 99T140-480q0 141 99.5 240.5T480-140Zm0-340Z"/></svg>
